inDegrees=no
nColumns=24
nRows=9
DataType=double
version=3
OpenSimVersion=4.5
endheader
time	pelvis_tilt	pelvis_list	pelvis_rotation	pelvis_tz	pelvis_ty	pelvis_tx	hip_flexion_r	hip_adduction_r	hip_rotation_r	knee_angle_r	ankle_angle_r	subtalar_angle_r	mtp_angle_r	hip_flexion_l	hip_adduction_l	hip_rotation_l	knee_angle_l	ankle_angle_l	subtalar_angle_l	mtp_angle_l	lumbar_extension	lumbar_bending	lumbar_rotation
0	-0.03720341839352408	0.06112895185534621	0.03588551501688642	0	0.9414693900000001	-0	0.4797256899825244	-0.09454855289582167	-0.114603768476537	-0.1466777623311873	0.002416611331178156	-0.05118353227623686	0	-0.2059874811076653	0.06074217768876591	-0.147188953910199	-0.1986783162170056	0.3518447212223904	0.1737700105419926	0	-0.1387532446117569	-0.06112730867376213	-0.08998288048114984
0.01000000000000001	-0.03553655953576865	0.05962327268129373	0.03615853086994907	0.001436960000000015	0.9409165	0.01285418	0.4841776508803032	-0.09111992007732332	-0.1134789910400893	-0.1825273449262021	-0.01255858993655378	-0.05598393646547038	0	-0.2158787368828066	0.0547335768297551	-0.1461940591642958	-0.2108227082806675	0.3424664779282695	0.1787858955241383	0	-0.1380714170786996	-0.05725421065701675	-0.09306188004270952
0.02000000000000002	-0.03415595587018371	0.05739983215166319	0.03656230666226012	0.003182199999999996	0.9407159	0.02576912	0.485794948014359	-0.08594919943231742	-0.1103207945457265	-0.2066810812355931	-0.03122309383349134	-0.05656961189017313	0	-0.2233370822204842	0.04792677651541518	-0.1374672713581217	-0.2269183994090067	0.3322917979613639	0.1820072420450955	0	-0.137393307271482	-0.05446581818975796	-0.09400347260778984
0.03000000000000003	-0.04313531977610957	0.04887480757415019	0.0455503052648798	0.004173189999999993	0.9403412600000001	0.03836177	0.4898629675435597	-0.07852699916531695	-0.1194423367333264	-0.2142528794323686	-0.05618000343751384	-0.07046354800144003	0	-0.2095661663396758	0.03192205543834839	-0.1272277918539456	-0.2600684892784764	0.3191148518334624	0.1863973812863736	0	-0.1236332068469823	-0.04147957563710868	-0.1048222911188193
0.04000000000000004	-0.04437140486312652	0.04321872245106233	0.0481875170866642	0.006302610000000014	0.94096552	0.05087797	0.4849700348985647	-0.07093275638342672	-0.1222391001487436	-0.2229190247264845	-0.07195879077024533	-0.06670790453470148	0	-0.2018290332773919	0.019188316998968	-0.1236942315861466	-0.2961437387569839	0.3002772781208375	0.1860832180067574	0	-0.1205364277908655	-0.03584863662656019	-0.1042740346806147
0.05000000000000004	-0.05388415378176855	0.02889808839551416	0.05657657793963274	0.007862740000000007	0.94141297	0.06339797	0.4832632030720133	-0.05781100943471234	-0.1317148808190464	-0.2257079371273275	-0.1020046945807857	-0.05381180614352261	0	-0.1787554400522898	-0.00313915285782843	-0.1103956965723063	-0.3423647219167525	0.2832223189544841	0.1891773434642795	0	-0.1060231687503784	-0.01792907468455763	-0.1115570039245312
0.06000000000000005	-0.05881016246077477	0.01836997207739892	0.0625793748511371	0.00944484000000001	0.94256529	0.07599772	0.4763924676819813	-0.04784323388730751	-0.1391571968783408	-0.2301904199939993	-0.1105124320466613	-0.0520851871701755	0	-0.1579699561977926	-0.02142453528745022	-0.1020964950597162	-0.3915624438773445	0.2544732392840715	0.1960450728737407	0	-0.09680004211712714	-0.005026450681838482	-0.1142291756150314
0.06999999999999984	-0.06395935842412914	0.007861221901997837	0.06879283666658953	0.0110172	0.94392025	0.08827602	0.468500954313239	-0.03643632685935145	-0.1392051236196005	-0.2297590819406553	-0.115963073309491	-0.07615746145846018	0	-0.1308018777943113	-0.04033290339426052	-0.09346845955341641	-0.4497192976337223	0.2222441130605882	0.208720063181433	0	-0.08823525420132695	0.006663018170698459	-0.1157579840324123
0.07999999999999985	-0.06720249440514491	0.003715130863120707	0.07001312986295573	0.01301407000000002	0.9455312100000001	0.10092071	0.465742482374413	-0.02846094378779968	-0.1237501995828691	-0.2450928862359507	-0.1147367519190305	-0.120874873312766	0	-0.1072948364127995	-0.05154771232889215	-0.08639189975362484	-0.5030269621066809	0.1761024521482629	0.228100241432546	0	-0.08131651492648234	0.01083326547391289	-0.1127824578863535
